<svg width="51" height="37" viewBox="0 0 51 37" fill="none" xmlns="http://www.w3.org/2000/svg">
            <path d="M18.5 6L13.5 1L1 8L6 13.5M18.5 6L24 1.5L49 5.5L44.5 10.5M18.5 6L6 13.5M18.5 6L44.5 10.5M18.5 6V15.4231M44.5 10.5L49.5 15.5L44.5 18.3M44.5 10.5L32 17.5M32 17.5L37 22.5L44.5 18.3M32 17.5L26.5 23L6.5 19.8M32 17.5V36M32 17.5L18.5 15.4231M6 13.5L1.5 19L6.5 19.8M6 13.5L18.5 15.4231M32 36L44.5 29.5V18.3M32 36L6.5 31.5V19.8" stroke="#2D2A24" stroke-width="1.75" stroke-linejoin="round"></path>
            <path d="M21.5727 9.76068C22.194 9.55301 26.7495 8.29837 27.3448 13.9919C27.3448 14.0351 27.3879 13.9919 27.3448 13.9919C26.6718 14.1909 21.7626 15.4975 21.5037 9.85586C21.5029 9.83454 21.5093 9.81354 21.5218 9.79629C21.5343 9.77903 21.5523 9.7665 21.5727 9.76068Z" stroke="#2D2A24" stroke-miterlimit="10" stroke-linecap="round"></path>
            <path d="M21.5 9.85547L27.3411 13.9915V17" stroke="#2D2A24" stroke-miterlimit="10" stroke-linecap="round"></path>
            <path d="M33.9321 11.5075C33.8027 12.1478 32.6638 16.8636 27.4612 14.5273C27.4413 14.5195 27.4249 14.5046 27.4154 14.4854C27.4058 14.4662 27.4037 14.4442 27.4094 14.4235C27.5647 13.7399 28.8848 8.81647 33.889 11.4037C33.9062 11.4141 33.9197 11.4298 33.9275 11.4485C33.9352 11.4672 33.9368 11.4878 33.9321 11.5075Z" stroke="#2D2A24" stroke-miterlimit="10" stroke-linecap="round"></path>
            <path d="M33.8885 11.4062L27.4089 14.426" stroke="#2D2A24" stroke-miterlimit="10" stroke-linecap="round"></path>
        </svg>