<svg width="36" height="36" viewBox="0 0 36 36" fill="none" xmlns="http://www.w3.org/2000/svg">
                        <path d="M10.6388 25.0069L10.6386 25.0066C6.54012 21.1033 3.63636 16.9981 2.20063 13.426C0.753844 9.82632 0.852682 6.93486 2.43995 5.24211C2.56043 5.12268 2.68094 5.04036 2.86734 4.94716L2.87773 4.94196L2.88788 4.93629L7.60697 2.29584C8.47136 1.84421 9.53632 2.08683 10.0536 2.81895C10.0537 2.81915 10.0539 2.81934 10.054 2.81954L13.4808 7.70693C13.761 8.12951 13.8775 8.61281 13.7972 9.01439L13.7971 9.01437L13.7955 9.023C13.7075 9.50725 13.4484 9.89503 13.0563 10.1573L10.9969 11.4931C10.8915 11.5507 10.7768 11.6408 10.7043 11.7857C10.6344 11.9255 10.6369 12.0616 10.6374 12.0898C10.6375 12.0915 10.6375 12.0928 10.6375 12.0937C10.6375 12.096 10.6375 12.0985 10.6375 12.1012C10.6371 12.1696 10.6362 12.3782 10.7987 12.5709C12.3539 14.869 16.7238 20.6387 23.6414 24.7804C23.8563 24.9181 24.0979 24.9316 24.2747 24.9081C24.4501 24.8847 24.6646 24.8111 24.8223 24.6535L24.8482 24.6276L24.8701 24.5981L26.3326 22.6294L26.3326 22.6294L26.3366 22.6239C26.9014 21.8418 28.0071 21.6468 28.8696 22.1909C28.8699 22.1911 28.8702 22.1912 28.8705 22.1914L33.9875 25.4528L33.9892 25.4539C34.8357 25.9886 35.0853 27.0337 34.5647 27.8579L34.5635 27.8599L31.751 32.3599L31.7384 32.3801L31.7278 32.4013C31.6598 32.5374 31.5551 32.6435 31.4476 32.7152L31.4181 32.7349L31.3916 32.7586C30.4433 33.6071 29.172 33.9812 27.6187 33.9812C25.4216 33.9812 22.6903 33.1869 19.7349 31.6538C16.7865 30.1242 13.6464 27.8752 10.6388 25.0069ZM8.10138 3.09648L8.09098 3.10168L8.08084 3.10735L3.36908 5.74369H3.27021L3.12195 5.90254C2.4081 6.66738 2.12017 7.77485 2.16692 9.04644C2.21382 10.322 2.59754 11.8186 3.2952 13.444C4.69164 16.6976 7.38043 20.5485 11.3556 24.3249C15.3314 28.1019 19.3936 30.6591 22.8266 31.9806C24.542 32.641 26.1183 32.9997 27.459 33.0369C28.7926 33.0739 29.9507 32.793 30.756 32.1051L30.7709 32.0924L30.7848 32.0785L30.7848 32.0785L30.7848 32.0785L30.7848 32.0785L30.7848 32.0785L30.7848 32.0784L30.7849 32.0784L30.7849 32.0784L30.7849 32.0784L30.7849 32.0784L30.7849 32.0784L30.7849 32.0784L30.7849 32.0784L30.7849 32.0783L30.7849 32.0783L30.785 32.0783L30.785 32.0783L30.785 32.0783L30.785 32.0783L30.785 32.0783L30.785 32.0782L30.7851 32.0782L30.7851 32.0782L30.7851 32.0782L30.7851 32.0782L30.7851 32.0782L30.7851 32.0782L30.7851 32.0781L30.7851 32.0781L30.7852 32.0781L30.7852 32.0781L30.7852 32.0781L30.7852 32.0781L30.7852 32.0781L30.7852 32.0781L30.7852 32.0781L30.7852 32.078L30.7853 32.078L30.7853 32.078L30.7853 32.078L30.7853 32.078L30.7853 32.078L30.7853 32.078L30.7853 32.0779L30.7854 32.0779L30.7854 32.0779L30.7854 32.0779L30.7854 32.0779L30.7854 32.0779L30.7854 32.0778L30.7855 32.0778L30.7855 32.0778L30.7855 32.0778L30.7855 32.0778L30.7855 32.0778L30.7855 32.0777L30.7856 32.0777L30.7856 32.0777L30.7856 32.0777L30.7856 32.0777L30.7856 32.0776L30.7857 32.0776L30.7857 32.0776L30.7857 32.0776L30.7857 32.0776L30.7857 32.0775L30.7858 32.0775L30.7858 32.0775L30.7858 32.0775L30.7858 32.0774L30.7859 32.0774L30.7859 32.0774L30.7859 32.0774L30.7859 32.0773L30.786 32.0773L30.786 32.0773L30.786 32.0773L30.786 32.0772L30.7861 32.0772L30.7861 32.0772L30.7861 32.0772L30.7861 32.0771L30.7862 32.0771L30.7862 32.0771L30.7862 32.0771L30.7863 32.077L30.7863 32.077L30.7863 32.077L30.7863 32.0769L30.7864 32.0769L30.7864 32.0769L30.7864 32.0768L30.7865 32.0768L30.7865 32.0768L30.7865 32.0767L30.7866 32.0767L30.7866 32.0767L30.7866 32.0767L30.7867 32.0766L30.7867 32.0766L30.7867 32.0765L30.7868 32.0765L30.7868 32.0765L30.7868 32.0764L30.7869 32.0764L30.7869 32.0764L30.787 32.0763L30.787 32.0763L30.787 32.0763L30.7871 32.0762L30.7871 32.0762L30.7871 32.0761L30.7872 32.0761L30.7872 32.0761L30.7873 32.076L30.7873 32.076L30.7874 32.0759L30.7874 32.0759L30.7874 32.0758L30.7875 32.0758L30.7875 32.0758L30.7876 32.0757L30.7876 32.0757L30.7877 32.0756L30.7877 32.0756L30.7878 32.0755L30.7878 32.0755L30.7878 32.0754L30.7879 32.0754L30.7879 32.0753L30.788 32.0753L30.788 32.0752L30.7881 32.0752L30.7881 32.0751L30.7882 32.0751L30.7882 32.075L30.7883 32.075L30.7883 32.0749L30.7884 32.0749L30.7885 32.0748L30.7885 32.0748L30.7886 32.0747L30.7886 32.0747L30.7887 32.0746L30.7887 32.0746L30.7888 32.0745L30.7888 32.0744L30.7889 32.0744L30.789 32.0743L30.789 32.0743L30.7891 32.0742L30.7891 32.0742L30.7892 32.0741L30.7892 32.074L30.7893 32.074L30.7894 32.0739L30.7894 32.0739L30.7895 32.0738L30.7896 32.0737L30.7896 32.0737L30.7897 32.0736L30.7898 32.0735L30.7898 32.0735L30.7899 32.0734L30.79 32.0733L30.79 32.0733L30.7901 32.0732L30.7902 32.0731L30.7902 32.0731L30.7903 32.073L30.7904 32.0729L30.7904 32.0728L30.7905 32.0728L30.7906 32.0727L30.7907 32.0726L30.7907 32.0726L30.7908 32.0725L30.7909 32.0724L30.7909 32.0723L30.791 32.0723L30.7911 32.0722L30.7912 32.0721L30.7913 32.072L30.7913 32.072L30.7914 32.0719L30.7915 32.0718L30.7916 32.0717L30.7917 32.0716L30.7917 32.0715L30.7918 32.0715L30.7919 32.0714L30.792 32.0713L30.7921 32.0712L30.7922 32.0711L30.7922 32.071L30.7923 32.071L30.7924 32.0709L30.7925 32.0708L30.7926 32.0707L30.7927 32.0706L30.7928 32.0705L30.7929 32.0704L30.7929 32.0703L30.793 32.0702L30.7931 32.0702L30.7932 32.0701L30.7933 32.07L30.7934 32.0699L30.7935 32.0698L30.7936 32.0697L30.7937 32.0696L30.7938 32.0695L30.7939 32.0694L30.794 32.0693L30.7941 32.0692L30.7942 32.0691L30.7943 32.069L30.7944 32.0689L30.7945 32.0688L30.7946 32.0687L30.7947 32.0686L30.7948 32.0685L30.7949 32.0684L30.795 32.0683L30.7951 32.0682L30.7952 32.0681L30.7953 32.068L30.7954 32.0678L30.7955 32.0677L30.7957 32.0676L30.7958 32.0675L30.7959 32.0674L30.796 32.0673L30.7961 32.0672L30.7962 32.0671L30.7963 32.067L30.7964 32.0668L30.7966 32.0667L30.7967 32.0666L30.7968 32.0665L30.7969 32.0664L30.797 32.0663L30.7971 32.0661L30.7973 32.066L30.7974 32.0659L30.7975 32.0658L30.7976 32.0656L30.7978 32.0655L30.7979 32.0654L30.798 32.0653L30.7981 32.0651L30.7983 32.065L30.7984 32.0649L30.7985 32.0648L30.7986 32.0646L30.7988 32.0645L30.7989 32.0644L30.799 32.0642L30.7992 32.0641L30.7993 32.064L30.7994 32.0638L30.7996 32.0637L30.7997 32.0636L30.7998 32.0634L30.8 32.0633L30.8001 32.0632L30.8003 32.063L30.8004 32.0629L30.8005 32.0627L30.8007 32.0626L30.8008 32.0625L30.801 32.0623L30.8011 32.0622L30.8013 32.062L30.8014 32.0619L30.8015 32.0617L30.8017 32.0616L30.8018 32.0614L30.802 32.0613L30.8021 32.0611L30.8023 32.061L30.8024 32.0608L30.8026 32.0607L30.8028 32.0605L30.8029 32.0604L30.8031 32.0602L30.8032 32.0601L30.8034 32.0599L30.8035 32.0597L30.8037 32.0596L30.8039 32.0594L30.804 32.0593L30.8042 32.0591L30.8043 32.0589L30.8045 32.0588L30.8047 32.0586L30.8048 32.0585L30.805 32.0583L30.8052 32.0581L30.8053 32.058L30.8055 32.0578L30.8057 32.0576L30.8058 32.0574L30.806 32.0573L30.8062 32.0571L30.8064 32.0569L30.8065 32.0567L30.8067 32.0566L30.8069 32.0564L30.8071 32.0562L30.8072 32.056L30.8074 32.0559L30.8076 32.0557L30.8078 32.0555L30.808 32.0553L30.8081 32.0551L30.8083 32.055L30.8085 32.0548L30.8087 32.0546L30.8089 32.0544L30.8091 32.0542L30.8093 32.054L30.8095 32.0538L30.8096 32.0536L30.8098 32.0534L30.81 32.0533L30.8102 32.0531L30.8104 32.0529L30.8106 32.0527L30.8108 32.0525L30.811 32.0523L30.8112 32.0521L30.8114 32.0519L30.8116 32.0517L30.8118 32.0515L30.812 32.0513L30.8122 32.0511L30.8124 32.0509L30.8126 32.0507L30.8128 32.0505L30.813 32.0502L30.8132 32.05L30.8135 32.0498L30.8137 32.0496L30.8139 32.0494L30.8141 32.0492L30.8143 32.049L30.8145 32.0488L30.8147 32.0485L30.815 32.0483L30.8152 32.0481L30.8154 32.0479L30.8156 32.0477L30.8158 32.0474L30.8161 32.0472L30.8163 32.047L30.8165 32.0468L30.8167 32.0466L30.817 32.0463L30.8172 32.0461L30.8174 32.0459L30.8176 32.0456L30.8179 32.0454L30.8181 32.0452L30.8183 32.0449L30.8186 32.0447L30.8188 32.0445L30.819 32.0442L30.8193 32.044L30.8195 32.0438L30.8198 32.0435L30.82 32.0433L30.8202 32.043L30.8205 32.0428L30.8207 32.0426L30.821 32.0423L30.8212 32.0421L30.8215 32.0418L30.8217 32.0416L30.822 32.0413L30.8222 32.0411L30.8225 32.0408L30.8227 32.0406L30.823 32.0403L30.8232 32.0401L30.8235 32.0398L30.8237 32.0395L30.824 32.0393L30.8243 32.039L30.8245 32.0388L30.8248 32.0385L30.825 32.0382L30.8253 32.038L30.8256 32.0377L30.8258 32.0374L30.8261 32.0372L30.8264 32.0369L30.8267 32.0366L30.8269 32.0364L30.8272 32.0361L30.8275 32.0358L30.8277 32.0355L30.828 32.0353L30.8283 32.035L30.8286 32.0347L30.8289 32.0344L30.8291 32.0341L30.8294 32.0339L30.8297 32.0336L30.83 32.0333L30.8303 32.033L30.8306 32.0327L30.8308 32.0324L30.8311 32.0322L30.8314 32.0319L30.8317 32.0316L30.832 32.0313L30.8323 32.031L30.8326 32.0307L30.8329 32.0304L30.8332 32.0301L30.8335 32.0298L30.8338 32.0295L30.8341 32.0292L30.8344 32.0289L30.8347 32.0286L30.835 32.0283L30.8353 32.028L30.8356 32.0277L30.8359 32.0274L30.8362 32.0271L30.8365 32.0267L30.8369 32.0264L30.8372 32.0261L30.8375 32.0258L30.8378 32.0255L30.8381 32.0252L30.8384 32.0248L30.8388 32.0245L30.8391 32.0242L30.8394 32.0239L30.8397 32.0236L30.8401 32.0232L30.8404 32.0229L30.8407 32.0226L30.841 32.0222L30.8813 31.982L30.9115 31.9337L33.724 27.4337L33.7366 27.4135L33.7472 27.3923C33.8174 27.2519 33.8574 27.0688 33.8184 26.8738C33.7769 26.6665 33.6535 26.4847 33.4648 26.3589L33.4649 26.3588L33.4562 26.3533L28.3408 23.0929C28.1241 22.9508 27.8791 22.9367 27.7003 22.9606C27.5248 22.984 27.3103 23.0575 27.1527 23.2151L27.1267 23.2411L27.1049 23.2705L25.6446 25.2363C25.0658 25.9905 23.9961 26.2148 23.147 25.7251C15.9821 21.4474 11.5334 15.4979 9.98148 13.1146L9.98151 13.1146L9.97851 13.1101C9.7163 12.7168 9.62726 12.288 9.71612 11.7938C9.80813 11.3395 10.077 10.9236 10.4241 10.7308L10.4431 10.7202L10.4612 10.708L12.5205 9.31653C12.6245 9.2589 12.7368 9.16931 12.8081 9.02668C12.878 8.88688 12.8756 8.75075 12.875 8.72261C12.875 8.7209 12.875 8.71958 12.875 8.71869L12.875 8.71454C12.875 8.68327 12.8751 8.61364 12.8582 8.52923C12.8406 8.44114 12.8092 8.35654 12.7659 8.27009L12.7494 8.23697L12.7281 8.20665L9.29688 3.3129L9.27185 3.27721L9.24103 3.24639C9.12709 3.13245 8.97738 3.07474 8.89794 3.04826C8.80174 3.01619 8.67618 2.98744 8.54998 2.98744C8.54868 2.98744 8.5473 2.98744 8.54583 2.98744C8.51456 2.9874 8.44493 2.9873 8.36052 3.00419C8.27242 3.0218 8.18782 3.05326 8.10138 3.09648Z" stroke="#007b5f"></path>
                    </svg>