<svg width="36" height="36" viewBox="0 0 36 36" fill="none" xmlns="http://www.w3.org/2000/svg">
                        <path d="M10.4639 26.609L10.4502 26.6159L10.4368 26.6236L5.50048 29.4845C4.98833 29.7388 4.50783 29.875 4.05005 29.875C3.57971 29.875 3.04573 29.7317 2.60922 29.4901C1.6968 28.9601 1.17505 28.0571 1.17505 27V9C1.17505 7.41989 2.46994 6.125 4.05005 6.125H31.95C33.5332 6.125 34.8165 7.41948 34.769 8.98485L34.7688 8.99243V9V23.5125C34.7688 25.0926 33.4739 26.3875 31.8938 26.3875H11.3625C11.0512 26.3875 10.7501 26.466 10.4639 26.609ZM5.0049 28.6847L5.01868 28.6778L5.03201 28.6701L9.9779 25.8037C10.4144 25.5621 10.9484 25.4187 11.4188 25.4187H31.95C32.8402 25.4187 33.5756 24.8285 33.7918 24.0125H33.9125V23.5125V9C33.9125 7.93636 33.0699 7.09375 32.0063 7.09375H4.1063C3.04266 7.09375 2.20005 7.93636 2.20005 9V27.0562C2.20005 27.7116 2.49881 28.3584 3.15144 28.6847C3.74221 28.9801 4.41414 28.9801 5.0049 28.6847Z" fill="#007b5f" stroke="#007b5f"></path>
                        <path d="M25.1439 12.375H10.0689C9.5064 12.375 9.0564 12.825 9.0564 13.3875C9.0564 13.95 9.5064 14.4 10.0689 14.4H25.2001C25.7626 14.4 26.2126 13.95 26.2126 13.3875C26.2126 12.825 25.7064 12.375 25.1439 12.375Z" fill="#007b5f"></path>
                        <path d="M22.7814 18.7305H10.0689C9.5064 18.7305 9.0564 19.1805 9.0564 19.743C9.0564 20.3055 9.5064 20.7555 10.0689 20.7555H22.8376C23.4001 20.7555 23.8501 20.3055 23.8501 19.743C23.8501 19.1805 23.3439 18.7305 22.7814 18.7305Z" fill="#007b5f"></path>
                    </svg>