<svg width="37" height="33" viewBox="0 0 37 33" fill="none" xmlns="http://www.w3.org/2000/svg">
            <path d="M14.2285 13.4462C15.071 13.4462 15.754 12.7622 15.754 11.9184C15.754 11.0746 15.071 10.3906 14.2285 10.3906C13.3861 10.3906 12.7031 11.0746 12.7031 11.9184C12.7031 12.7622 13.3861 13.4462 14.2285 13.4462Z" fill="#2D2A24"></path>
            <path d="M23.3809 13.4462C24.2234 13.4462 24.9063 12.7622 24.9063 11.9184C24.9063 11.0746 24.2234 10.3906 23.3809 10.3906C22.5384 10.3906 21.8555 11.0746 21.8555 11.9184C21.8555 12.7622 22.5384 13.4462 23.3809 13.4462Z" fill="#2D2A24"></path>
            <path d="M9.65259 17.7227C10.622 22.1318 14.5282 25.2129 18.8336 25.0498C22.9052 24.8984 26.4408 21.8813 27.3475 17.7227" stroke="#2D2A24" stroke-width="1.75" stroke-miterlimit="10" stroke-linecap="round"></path>
            <path d="M18.4999 31.1671C26.7561 31.1671 33.4491 24.4638 33.4491 16.1949C33.4491 7.92595 26.7561 1.22266 18.4999 1.22266C10.2437 1.22266 3.55078 7.92595 3.55078 16.1949C3.55078 24.4638 10.2437 31.1671 18.4999 31.1671Z" stroke="#2D2A24" stroke-width="1.75" stroke-miterlimit="10" stroke-linecap="round"></path>
        </svg>