<?xml version="1.0" encoding="UTF-8"?>
<svg id="Ebene_2" data-name="Ebene 2" xmlns="http://www.w3.org/2000/svg" viewBox="0 0 1174.06 463.71">
  <defs>
    <style>
      .cls-1 {
        fill: #fff;
      }
    </style>
  </defs>
  <g id="Ebene_1-2" data-name="Ebene 1">
    <g>
      <g id="Generatives_Objekt" data-name="Generatives Objekt">
        <path class="cls-1" d="M116.51,64.29c.59-.57,2.37-1.77,3.11-2.07,1.86-.74,33.48,2.78,39.9,2.66,11.95-.22,55.72-6.94,62.58.5,21.78,23.59-5.84,88.2,8.11,103.41,14.99,16.34,18.71-33.28,18.99-40.65.91-24.57-4.01-48.58-10.37-72.19,2.08-2.65,19.79,1.75,23.71,2.76,16.71,4.3,31.76,9.03,37.01,27.01,10.73,36.78-32.61,95.9-27.92,111.64,9.58,32.1,29.07-32.84,31.04-40.24,6.47-24.38,9.37-51.5,7.39-76.69l2.98-1.42c17.41,9.84,52.97,32.3,55.36,52.96,1.75,15.1-16.54,43.77-24.84,56.32-3.4,5.14-36.31,38.82-18.73,42.72,10.71,2.38,32.17-38.08,37.14-47.1,10.04-18.23,15.53-54.13,33.32-14.84,24.2,53.42-10.34,178.23-82.39,144.45-1.43-.67-15.69-13.31-15.54-6.51s58.97,82.03,55.95,86.78c-.48.76-9.36,6.31-9.99,6.07l-57.77-84.45c-4.61.93,1.11,8.03,1.41,9.72,15.41,87.6-126.11,100.48-173.16,36.5-4.25-5.78-8.3-12.17-.1-16.2,13.18-6.48,54.46-4.52,72.58-12.31,20.37-8.77,15.38-19.94-5.41-16.59-19.46,3.13-74.48,27.58-91.1,10.6-9.24-9.44-23.35-48.54-24.51-62.23-.24-2.87-1.63-7.76,1.7-8.42,23.24,12,49.93,18.83,75.89,21.38,7.47.73,65.17,5.11,46.02-14.3-7.29-7.39-47.71-2.08-59.47-2.56-19.45-.81-54.63-6.02-65.13-24.6-6.81-12.05-2.4-47.43,3.34-59.98,13.64,6.95,25.82,18.08,39.99,25.59,11.35,6.01,58.5,24.41,69.54,19.43,11.33-5.12,2.44-15.38-4.76-19.83-12.67-7.83-47.81-10.5-65.53-19.29-11.84-5.87-28.87-15.79-24.69-31.27,3.52-13.05,18.19-36.87,23.93-51.78,1.98-5.14,9.12-33.69,10.43-34.96Z"/>
        <path class="cls-1" d="M231.92,463.71c-37.45,0-75.03-9.24-109.66-27.08-35.22-18.15-63.89-44.11-85.19-77.17C17.24,328.7,4.83,292.69,1.17,255.32-6.69,175.14,25.42,98.05,87.07,49.11l5.23,6.59-5.23-6.59C120.38,22.65,160.15,6.17,202.08,1.45c39.44-4.45,80.11,1.42,117.6,16.96,37.27,15.45,69.92,39.87,94.43,70.61,26.08,32.72,42.4,72.23,47.2,114.26,5.08,44.53-1.91,88.65-20.21,127.59-17.25,36.7-44.19,68.4-77.9,91.68-33.83,23.36-73.22,37.37-113.89,40.51-5.78.45-11.59.67-17.39.67ZM227.9,16.82c-8.01,0-16,.44-23.94,1.34-38.79,4.37-75.6,19.63-106.44,44.12C40.37,107.66,10.61,179.21,17.91,253.68c3.4,34.71,14.92,68.14,33.3,96.67,19.69,30.55,46.19,54.55,78.76,71.33,37.22,19.17,78.04,27.68,118.05,24.59,37.71-2.91,74.24-15.9,105.63-37.58,31.27-21.59,56.24-50.98,72.23-84.99,16.98-36.11,23.45-77.09,18.72-118.52-4.44-38.89-19.53-75.43-43.64-105.68-22.74-28.52-53.07-51.19-87.72-65.56-27.31-11.32-56.41-17.13-85.34-17.13Z"/>
      </g>
      <g>
        <path class="cls-1" d="M515.09,18.19h21.92v84.39h56.44V18.19h21.92v184.68h-21.92v-80.83h-56.44v80.83h-21.92V18.19Z"/>
        <path class="cls-1" d="M741.14,162.04c0,26.03-15.07,43.57-45.48,43.57s-45.48-17.54-45.48-43.57v-74.8c0-26.03,15.07-43.57,45.48-43.57s45.48,17.54,45.48,43.57v74.8ZM720.05,87.24c0-14.8-6.85-24.39-24.39-24.39s-24.11,9.59-24.11,24.39v74.8c0,14.8,6.85,24.39,24.11,24.39s24.39-9.59,24.39-24.39v-74.8Z"/>
        <path class="cls-1" d="M774.84,202.87V46.41h20.55v16.17c2.47-5.48,11.78-16.99,32.06-16.99,16.44,0,27.95,7.4,33.15,20.28,3.29-7.67,13.43-20.28,34.52-20.28,23.29,0,36.44,15.07,36.44,38.91v118.37h-21.37v-115.63c0-14.8-7.12-23.02-21.92-23.02-12.6,0-24.39,7.95-24.39,23.02v115.63h-21.37v-115.63c0-14.8-7.12-23.02-21.92-23.02-12.6,0-24.39,7.95-24.39,22.47v116.18h-21.37Z"/>
        <path class="cls-1" d="M1054.87,129.98v.82h-69.87v31.51c0,14.8,7.12,24.11,24.66,24.11s24.66-9.32,24.66-24.11v-10.41h21.1v10.14c0,26.03-15.34,43.57-45.76,43.57s-45.76-17.54-45.76-43.57v-74.8c0-26.03,15.34-43.57,45.76-43.57s45.76,17.54,45.76,43.57v42.74h-.55ZM985,112.99h49.32v-26.03c0-14.8-7.12-24.11-24.66-24.11s-24.66,9.32-24.66,24.11v26.03Z"/>
        <path class="cls-1" d="M512.36,301.56c0-25.21,15.07-44.11,47.68-44.11s47.4,18.91,47.4,44.11v12.88h-21.37v-12.33c0-14.8-7.4-24.93-26.03-24.93s-26.03,9.86-26.03,24.93v100.83c0,15.07,6.3,24.93,24.93,24.93s27.13-9.86,27.13-24.93v-36.17h-20.55v-18.91h41.92v97h-20.82v-13.15c-4.38,7.12-13.97,15.34-31.51,15.34-29.87,0-42.74-18.63-42.74-43.29v-102.2Z"/>
        <path class="cls-1" d="M676.2,446.51c-26.58,0-39.73-13.97-39.73-37.54v-7.95c0-18.63,10.14-30.41,32.33-37.81l38.91-12.33v-23.56c0-14.8-6.58-22.47-24.39-22.47s-23.84,7.67-23.84,22.47v9.04h-21.37v-9.04c0-25.76,14.52-41.65,45.21-41.65s45.48,15.89,45.48,41.65v117.55h-20.82v-16.44c-3.29,9.04-13.15,18.08-31.78,18.08ZM680.31,428.7c20.28,0,27.4-10.96,27.4-24.11v-34.8l-30.41,9.32c-14.8,4.66-19.73,11.23-19.73,22.19v6.58c0,12.88,6.58,20.82,22.74,20.82Z"/>
        <path class="cls-1" d="M819.78,309.51c-3.01-.82-6.3-1.1-10.96-1.1-12.88,0-23.84,10.14-23.84,25.76v110.7h-21.37v-156.46h20.55v20c1.92-8.77,10.96-20.82,30.14-20.82,1.92,0,3.84,0,5.48.27v21.65Z"/>
        <path class="cls-1" d="M836.22,330.06c0-25.76,15.34-40.55,38.63-40.55,19.45,0,27.67,10.41,29.59,14.25v-56.99h21.37v198.1h-21.1v-14.52c-2.19,4.66-10.96,15.62-30.69,15.62-24.11,0-37.81-15.62-37.81-40.28v-75.62ZM904.44,330.33c0-14.52-10.96-22.19-24.11-22.19-14.8,0-22.74,7.67-22.74,22.74v73.16c0,15.07,7.95,22.74,22.74,22.74,13.15,0,24.11-7.4,24.11-21.92v-74.53Z"/>
        <path class="cls-1" d="M1050.49,371.98v.82h-69.87v31.51c0,14.8,7.12,24.11,24.66,24.11s24.66-9.32,24.66-24.11v-10.41h21.1v10.14c0,26.03-15.34,43.57-45.76,43.57s-45.76-17.54-45.76-43.57v-74.8c0-26.03,15.34-43.57,45.76-43.57s45.76,17.54,45.76,43.57v42.74h-.55ZM980.62,354.99h49.32v-26.03c0-14.8-7.12-24.11-24.66-24.11s-24.66,9.32-24.66,24.11v26.03Z"/>
        <path class="cls-1" d="M1084.46,444.87v-156.46h20.55v16.17c2.47-5.48,12.06-16.99,32.33-16.99,23.29,0,36.72,15.07,36.72,38.91v118.37h-21.37v-115.63c0-14.8-7.4-23.02-22.19-23.02-12.88,0-24.66,7.95-24.66,22.47v116.18h-21.37Z"/>
      </g>
    </g>
  </g>
</svg>