<?xml version="1.0" encoding="UTF-8"?>
<svg id="Ebene_2" data-name="Ebene 2" xmlns="http://www.w3.org/2000/svg" viewBox="0 0 462.92 463.71">
  <defs>
    <style>
      .cls-1 {
        fill: #fff;
      }
    </style>
  </defs>
  <g id="Ebene_1-2" data-name="Ebene 1">
    <g id="Generatives_Objekt" data-name="Generatives Objekt">
      <path class="cls-1" d="M116.51,64.29c.59-.57,2.37-1.77,3.11-2.07,1.86-.74,33.48,2.78,39.9,2.66,11.95-.22,55.72-6.94,62.58.5,21.78,23.59-5.84,88.2,8.11,103.41,14.99,16.34,18.71-33.28,18.99-40.65.91-24.57-4.01-48.58-10.37-72.19,2.08-2.65,19.79,1.75,23.71,2.76,16.71,4.3,31.76,9.03,37.01,27.01,10.73,36.78-32.61,95.9-27.92,111.64,9.58,32.1,29.07-32.84,31.04-40.24,6.47-24.38,9.37-51.5,7.39-76.69l2.98-1.42c17.41,9.84,52.97,32.3,55.36,52.96,1.75,15.1-16.54,43.77-24.84,56.32-3.4,5.14-36.31,38.82-18.73,42.72,10.71,2.38,32.17-38.08,37.14-47.1,10.04-18.23,15.53-54.13,33.32-14.84,24.2,53.42-10.34,178.23-82.39,144.45-1.43-.67-15.69-13.31-15.54-6.51s58.97,82.03,55.95,86.78c-.48.76-9.36,6.31-9.99,6.07l-57.77-84.45c-4.61.93,1.11,8.03,1.41,9.72,15.41,87.6-126.11,100.48-173.16,36.5-4.25-5.78-8.3-12.17-.1-16.2,13.18-6.48,54.46-4.52,72.58-12.31,20.37-8.77,15.38-19.94-5.41-16.59-19.46,3.13-74.48,27.58-91.1,10.6-9.24-9.44-23.35-48.54-24.51-62.23-.24-2.87-1.63-7.76,1.7-8.42,23.24,12,49.93,18.83,75.89,21.38,7.47.73,65.17,5.11,46.02-14.3-7.29-7.39-47.71-2.08-59.47-2.56-19.45-.81-54.63-6.02-65.13-24.6-6.81-12.05-2.4-47.43,3.34-59.98,13.64,6.95,25.82,18.08,39.99,25.59,11.35,6.01,58.5,24.41,69.54,19.43,11.33-5.12,2.44-15.38-4.76-19.83-12.67-7.83-47.81-10.5-65.53-19.29-11.84-5.87-28.87-15.79-24.69-31.27,3.52-13.05,18.19-36.87,23.93-51.78,1.98-5.14,9.12-33.69,10.43-34.96Z"/>
      <path class="cls-1" d="M231.92,463.71c-37.45,0-75.03-9.24-109.66-27.08-35.22-18.15-63.89-44.11-85.19-77.17C17.24,328.7,4.83,292.69,1.17,255.32-6.69,175.14,25.42,98.05,87.07,49.11l5.23,6.59-5.23-6.59C120.38,22.65,160.15,6.17,202.08,1.45c39.44-4.45,80.11,1.42,117.6,16.96,37.27,15.45,69.92,39.87,94.43,70.61,26.08,32.72,42.4,72.23,47.2,114.26,5.08,44.53-1.91,88.65-20.21,127.59-17.25,36.7-44.19,68.4-77.9,91.68-33.83,23.36-73.22,37.37-113.89,40.51-5.78.45-11.59.67-17.39.67ZM227.9,16.82c-8.01,0-16,.44-23.94,1.34-38.79,4.37-75.6,19.63-106.44,44.12C40.37,107.66,10.61,179.21,17.91,253.68c3.4,34.71,14.92,68.14,33.3,96.67,19.69,30.55,46.19,54.55,78.76,71.33,37.22,19.17,78.04,27.68,118.05,24.59,37.71-2.91,74.24-15.9,105.63-37.58,31.27-21.59,56.24-50.98,72.23-84.99,16.98-36.11,23.45-77.09,18.72-118.52-4.44-38.89-19.53-75.43-43.64-105.68-22.74-28.52-53.07-51.19-87.72-65.56-27.31-11.32-56.41-17.13-85.34-17.13Z"/>
    </g>
  </g>
</svg>