<svg width="36" height="36" viewBox="0 0 36 36" fill="none" xmlns="http://www.w3.org/2000/svg">
                        <path d="M32.0625 6.13086H3.93755C2.13755 6.13086 0.675049 7.59336 0.675049 9.39336V26.6621C0.675049 28.4621 2.13755 29.9246 3.93755 29.9246H32.0625C33.8625 29.9246 35.325 28.4621 35.325 26.6621V9.39336C35.325 7.59336 33.8625 6.13086 32.0625 6.13086ZM32.0625 8.09961C32.3438 8.09961 32.5688 8.15586 32.7938 8.32461L18.7875 16.8184C18.2813 17.0996 17.7188 17.0996 17.2125 16.8184L3.2063 8.32461C3.4313 8.21211 3.6563 8.09961 3.93755 8.09961H32.0625ZM32.0625 27.8996H3.93755C3.26255 27.8996 2.6438 27.3371 2.6438 26.6059V10.2934L16.1438 18.5059C16.7063 18.8434 17.325 19.0121 17.9438 19.0121C18.5625 19.0121 19.1813 18.8434 19.7438 18.5059L33.2438 10.2934V26.6059C33.3563 27.3371 32.7375 27.8996 32.0625 27.8996Z" fill="#007b5f"></path>
                    </svg>