<svg width="35" height="34" viewBox="0 0 35 34" fill="none" xmlns="http://www.w3.org/2000/svg">
            <path d="M29.2143 4.30712L29.2143 4.30715L29.2196 4.30854C29.9987 4.51355 30.5469 5.26277 30.5469 6.05625V14.2375C30.5469 22.4261 25.7325 29.6738 18.23 32.7338C17.9568 32.8238 17.7484 32.8625 17.5 32.8625C17.2321 32.8625 16.9784 32.8172 16.7827 32.739C9.32555 29.7349 4.45312 22.4833 4.45312 14.2906V6.10938C4.45312 5.25596 5.00763 4.51189 5.78037 4.30854L5.78038 4.30856L5.78507 4.30728L17.0476 1.22603L17.0476 1.22606L17.053 1.22451C17.3284 1.14582 17.6614 1.14102 18.0109 1.22748L29.2143 4.30712ZM17.3938 1.99687H17.3263L17.2612 2.01476L6.05641 5.09475C5.619 5.20753 5.3125 5.62265 5.3125 6.05625V14.2375C5.3125 22.0817 9.94198 29.0122 17.1416 31.8558C17.2711 31.9152 17.4076 31.9367 17.5266 31.9367C17.6462 31.9367 17.7836 31.915 17.9138 31.8548C24.9521 29.0106 29.6875 21.9226 29.6875 14.1844V6.05625C29.6875 5.62264 29.381 5.20751 28.9436 5.09475L17.7388 2.01476L17.6737 1.99687H17.6062H17.6062H17.6062H17.6062H17.6062H17.6062H17.6062H17.6062H17.6062H17.6061H17.6061H17.6061H17.6061H17.6061H17.6061H17.606H17.606H17.606H17.606H17.6059H17.6059H17.6059H17.6058H17.6058H17.6058H17.6057H17.6057H17.6057H17.6056H17.6056H17.6056H17.6055H17.6055H17.6054H17.6054H17.6053H17.6053H17.6053H17.6052H17.6052H17.6051H17.6051H17.605H17.6049H17.6049H17.6048H17.6048H17.6047H17.6047H17.6046H17.6045H17.6045H17.6044H17.6043H17.6043H17.6042H17.6041H17.6041H17.604H17.6039H17.6039H17.6038H17.6037H17.6036H17.6036H17.6035H17.6034H17.6033H17.6032H17.6032H17.6031H17.603H17.6029H17.6028H17.6027H17.6027H17.6026H17.6025H17.6024H17.6023H17.6022H17.6021H17.602H17.6019H17.6018H17.6017H17.6016H17.6015H17.6014H17.6013H17.6012H17.6011H17.601H17.6009H17.6008H17.6007H17.6006H17.6005H17.6003H17.6002H17.6001H17.6H17.5999H17.5998H17.5997H17.5995H17.5994H17.5993H17.5992H17.5991H17.5989H17.5988H17.5987H17.5986H17.5984H17.5983H17.5982H17.5981H17.5979H17.5978H17.5977H17.5975H17.5974H17.5973H17.5971H17.597H17.5968H17.5967H17.5966H17.5964H17.5963H17.5961H17.596H17.5959H17.5957H17.5956H17.5954H17.5953H17.5951H17.595H17.5948H17.5947H17.5945H17.5944H17.5942H17.5941H17.5939H17.5938H17.5936H17.5934H17.5933H17.5931H17.593H17.5928H17.5926H17.5925H17.5923H17.5921H17.592H17.5918H17.5916H17.5915H17.5913H17.5911H17.591H17.5908H17.5906H17.5905H17.5903H17.5901H17.5899H17.5898H17.5896H17.5894H17.5892H17.589H17.5889H17.5887H17.5885H17.5883H17.5881H17.5879H17.5878H17.5876H17.5874H17.5872H17.587H17.5868H17.5866H17.5864H17.5863H17.5861H17.5859H17.5857H17.5855H17.5853H17.5851H17.5849H17.5847H17.5845H17.5843H17.5841H17.5839H17.5837H17.5835H17.5833H17.5831H17.5829H17.5827H17.5825H17.5823H17.5821H17.5819H17.5817H17.5815H17.5812H17.581H17.5808H17.5806H17.5804H17.5802H17.58H17.5798H17.5796H17.5793H17.5791H17.5789H17.5787H17.5785H17.5783H17.578H17.5778H17.5776H17.5774H17.5771H17.5769H17.5767H17.5765H17.5763H17.576H17.5758H17.5756H17.5754H17.5751H17.5749H17.5747H17.5744H17.5742H17.574H17.5737H17.5735H17.5733H17.573H17.5728H17.5726H17.5723H17.5721H17.5719H17.5716H17.5714H17.5712H17.5709H17.5707H17.5704H17.5702H17.57H17.5697H17.5695H17.5692H17.569H17.5687H17.5685H17.5683H17.568H17.5678H17.5675H17.5673H17.567H17.5668H17.5665H17.5663H17.566H17.5658H17.5655H17.5653H17.565H17.5648H17.5645H17.5643H17.564H17.5638H17.5635H17.5632H17.563H17.5627H17.5625H17.5622H17.562H17.5617H17.5614H17.5612H17.5609H17.5607H17.5604H17.5601H17.5599H17.5596H17.5594H17.5591H17.5588H17.5586H17.5583H17.558H17.5578H17.5575H17.5572H17.557H17.5567H17.5564H17.5562H17.5559H17.5556H17.5554H17.5551H17.5548H17.5545H17.5543H17.554H17.5537H17.5534H17.5532H17.5529H17.5526H17.5524H17.5521H17.5518H17.5515H17.5512H17.551H17.5507H17.5504H17.5501H17.5499H17.5496H17.5493H17.549H17.5487H17.5485H17.5482H17.5479H17.5476H17.5473H17.5471H17.5468H17.5465H17.5462H17.5459H17.5456H17.5454H17.5451H17.5448H17.5445H17.5442H17.5439H17.5436H17.5434H17.5431H17.5428H17.5425H17.5422H17.5419H17.5416H17.5413H17.541H17.5408H17.5405H17.5402H17.5399H17.5396H17.5393H17.539H17.5387H17.5384H17.5381H17.5378H17.5376H17.5373H17.537H17.5367H17.5364H17.5361H17.5358H17.5355H17.5352H17.5349H17.5346H17.5343H17.534H17.5337H17.5334H17.5331H17.5328H17.5325H17.5322H17.5319H17.5316H17.5313H17.531H17.5307H17.5304H17.5301H17.5298H17.5295H17.5292H17.5289H17.5286H17.5283H17.528H17.5277H17.5274H17.5271H17.5268H17.5265H17.5262H17.5259H17.5256H17.5253H17.525H17.5247H17.5244H17.5241H17.5238H17.5235H17.5232H17.5229H17.5226H17.5223H17.522H17.5217H17.5213H17.521H17.5207H17.5204H17.5201H17.5198H17.5195H17.5192H17.5189H17.5186H17.5183H17.518H17.5177H17.5174H17.5171H17.5167H17.5164H17.5161H17.5158H17.5155H17.5152H17.5149H17.5146H17.5143H17.514H17.5137H17.5134H17.513H17.5127H17.5124H17.5121H17.5118H17.5115H17.5112H17.5109H17.5106H17.5103H17.5099H17.5096H17.5093H17.509H17.5087H17.5084H17.5081H17.5078H17.5075H17.5072H17.5068H17.5065H17.5062H17.5059H17.5056H17.5053H17.505H17.5047H17.5044H17.504H17.5037H17.5034H17.5031H17.5028H17.5025H17.5022H17.5019H17.5016H17.5012H17.5009H17.5006H17.5003H17.5H17.5H17.5H17.5H17.5H17.5H17.4999H17.4999H17.4999H17.4999H17.4999H17.4999H17.4998H17.4998H17.4998H17.4998H17.4998H17.4997H17.4997H17.4997H17.4997H17.4996H17.4996H17.4996H17.4995H17.4995H17.4995H17.4994H17.4994H17.4994H17.4993H17.4993H17.4992H17.4992H17.4991H17.4991H17.4991H17.499H17.499H17.4989H17.4989H17.4988H17.4988H17.4987H17.4986H17.4986H17.4985H17.4985H17.4984H17.4984H17.4983H17.4982H17.4982H17.4981H17.498H17.498H17.4979H17.4978H17.4978H17.4977H17.4976H17.4975H17.4975H17.4974H17.4973H17.4972H17.4972H17.4971H17.497H17.4969H17.4968H17.4967H17.4967H17.4966H17.4965H17.4964H17.4963H17.4962H17.4961H17.496H17.4959H17.4959H17.4958H17.4957H17.4956H17.4955H17.4954H17.4953H17.4952H17.4951H17.495H17.4949H17.4947H17.4946H17.4945H17.4944H17.4943H17.4942H17.4941H17.494H17.4939H17.4938H17.4936H17.4935H17.4934H17.4933H17.4932H17.4931H17.4929H17.4928H17.4927H17.4926H17.4924H17.4923H17.4922H17.4921H17.4919H17.4918H17.4917H17.4915H17.4914H17.4913H17.4911H17.491H17.4909H17.4907H17.4906H17.4905H17.4903H17.4902H17.49H17.4899H17.4898H17.4896H17.4895H17.4893H17.4892H17.489H17.4889H17.4887H17.4886H17.4884H17.4883H17.4881H17.488H17.4878H17.4877H17.4875H17.4873H17.4872H17.487H17.4869H17.4867H17.4865H17.4864H17.4862H17.4861H17.4859H17.4857H17.4856H17.4854H17.4852H17.4851H17.4849H17.4847H17.4845H17.4844H17.4842H17.484H17.4839H17.4837H17.4835H17.4833H17.4831H17.483H17.4828H17.4826H17.4824H17.4822H17.4821H17.4819H17.4817H17.4815H17.4813H17.4811H17.481H17.4808H17.4806H17.4804H17.4802H17.48H17.4798H17.4796H17.4794H17.4792H17.479H17.4788H17.4787H17.4785H17.4783H17.4781H17.4779H17.4777H17.4775H17.4773H17.4771H17.4769H17.4767H17.4764H17.4762H17.476H17.4758H17.4756H17.4754H17.4752H17.475H17.4748H17.4746H17.4744H17.4742H17.4739H17.4737H17.4735H17.4733H17.4731H17.4729H17.4727H17.4724H17.4722H17.472H17.4718H17.4716H17.4713H17.4711H17.4709H17.4707H17.4705H17.4702H17.47H17.4698H17.4696H17.4693H17.4691H17.4689H17.4686H17.4684H17.4682H17.468H17.4677H17.4675H17.4673H17.467H17.4668H17.4666H17.4663H17.4661H17.4659H17.4656H17.4654H17.4651H17.4649H17.4647H17.4644H17.4642H17.464H17.4637H17.4635H17.4632H17.463H17.4627H17.4625H17.4623H17.462H17.4618H17.4615H17.4613H17.461H17.4608H17.4605H17.4603H17.46H17.4598H17.4595H17.4593H17.459H17.4588H17.4585H17.4583H17.458H17.4578H17.4575H17.4573H17.457H17.4567H17.4565H17.4562H17.456H17.4557H17.4555H17.4552H17.4549H17.4547H17.4544H17.4542H17.4539H17.4536H17.4534H17.4531H17.4528H17.4526H17.4523H17.452H17.4518H17.4515H17.4512H17.451H17.4507H17.4504H17.4502H17.4499H17.4496H17.4494H17.4491H17.4488H17.4486H17.4483H17.448H17.4477H17.4475H17.4472H17.4469H17.4467H17.4464H17.4461H17.4458H17.4456H17.4453H17.445H17.4447H17.4444H17.4442H17.4439H17.4436H17.4433H17.4431H17.4428H17.4425H17.4422H17.4419H17.4417H17.4414H17.4411H17.4408H17.4405H17.4402H17.44H17.4397H17.4394H17.4391H17.4388H17.4385H17.4383H17.438H17.4377H17.4374H17.4371H17.4368H17.4365H17.4362H17.436H17.4357H17.4354H17.4351H17.4348H17.4345H17.4342H17.4339H17.4336H17.4333H17.4331H17.4328H17.4325H17.4322H17.4319H17.4316H17.4313H17.431H17.4307H17.4304H17.4301H17.4298H17.4295H17.4292H17.4289H17.4286H17.4284H17.4281H17.4278H17.4275H17.4272H17.4269H17.4266H17.4263H17.426H17.4257H17.4254H17.4251H17.4248H17.4245H17.4242H17.4239H17.4236H17.4233H17.423H17.4227H17.4224H17.4221H17.4218H17.4215H17.4212H17.4209H17.4206H17.4203H17.42H17.4197H17.4194H17.4191H17.4188H17.4184H17.4181H17.4178H17.4175H17.4172H17.4169H17.4166H17.4163H17.416H17.4157H17.4154H17.4151H17.4148H17.4145H17.4142H17.4139H17.4136H17.4133H17.413H17.4126H17.4123H17.412H17.4117H17.4114H17.4111H17.4108H17.4105H17.4102H17.4099H17.4096H17.4093H17.409H17.4086H17.4083H17.408H17.4077H17.4074H17.4071H17.4068H17.4065H17.4062H17.4059H17.4056H17.4052H17.4049H17.4046H17.4043H17.404H17.4037H17.4034H17.4031H17.4028H17.4025H17.4021H17.4018H17.4015H17.4012H17.4009H17.4006H17.4003H17.4H17.3997H17.3994H17.399H17.3987H17.3984H17.3981H17.3978H17.3975H17.3972H17.3969H17.3966H17.3962H17.3959H17.3956H17.3953H17.395H17.3947H17.3944H17.3941H17.3938Z" stroke="#2D2A24"></path>
            <path d="M24.2476 12.4433L24.2476 12.4434L24.2521 12.4395C24.3285 12.374 24.436 12.3399 24.5481 12.3465C24.6568 12.3529 24.7268 12.3939 24.7581 12.426C24.9213 12.6563 24.8683 12.9304 24.7182 13.0604L16.3266 20.1242L16.3102 20.138L16.295 20.1532C16.2625 20.1857 16.1996 20.2192 16.0642 20.2192C15.9288 20.2192 15.8659 20.1857 15.8334 20.1532L15.8176 20.1374L15.8004 20.123L11.6229 16.633C11.5179 16.5222 11.4602 16.392 11.4479 16.2812C11.436 16.1747 11.4642 16.092 11.5303 16.0259C11.7468 15.8093 12.0361 15.8228 12.1794 15.9457L12.1794 15.9458L12.1836 15.9493L15.7961 18.9774L16.117 19.2464L16.4382 18.9777L24.2476 12.4433Z" stroke="#2D2A24"></path>
        </svg>