<?xml version="1.0" encoding="UTF-8"?>
<svg id="Ebene_1" xmlns="http://www.w3.org/2000/svg" version="1.1" viewBox="0 0 36 36">
  <!-- Generator: Adobe Illustrator 30.2.1, SVG Export Plug-In . SVG Version: 2.1.1 Build 1)  -->
  <defs>
    <style>
      .st0 {
        fill: #007b5f;
      }
    </style>
  </defs>
  <path class="st0" d="M24.83,30.03h-13.66c-1.15,0-2.25-.55-2.94-1.48l-6.18-8.28c-.96-1.29-.96-3.1,0-4.39l6.18-8.28c.69-.92,1.79-1.48,2.94-1.48h13.66c1.15,0,2.25.55,2.94,1.48l6.18,8.28c.96,1.29.96,3.1,0,4.39l-6.18,8.28c-.69.92-1.79,1.48-2.94,1.48ZM11.17,8.12c-.53,0-1.03.25-1.34.67l-6.18,8.28c-.44.59-.44,1.41,0,2l6.18,8.28c.31.42.82.67,1.34.67h13.66c.53,0,1.03-.25,1.34-.67l6.18-8.28c.44-.59.44-1.41,0-2l-6.18-8.28c-.31-.42-.82-.67-1.34-.67h-13.66Z"/>
  <path class="st0" d="M18.64,22.27h-2v-4.02l.96-.03c2.37-.08,4.5-1.6,4.56-3.26.03-.89-.49-1.57-.93-1.99-.9-.84-2.3-1.38-3.55-1.38-2.01.01-4.08,1.71-4.1,3.35l-2-.02c.03-2.64,2.99-5.15,6.08-5.17,1.81,0,3.72.73,5,1.93,1.02.96,1.54,2.11,1.5,3.33-.08,2.41-2.48,4.49-5.52,4.94v2.31Z"/>
  <rect class="st0" x="16.66" y="24.2" width="2" height="1.53"/>
</svg>